<svg width="107" height="36" viewBox="0 0 107 36" fill="none" xmlns="http://www.w3.org/2000/svg">
<g clip-path="url(#clip0_110_2336)">
<path d="M101.697 36H5.30273C2.37903 36 0 33.6105 0 30.6802V5.32611C0 2.38952 2.37903 0 5.30273 0H101.704C104.627 0 107.006 2.38952 107.006 5.32611V30.6802C107 33.6105 104.621 36 101.697 36ZM5.30273 1.25764C3.0677 1.25764 1.25212 3.08122 1.25212 5.32611V30.6802C1.25212 32.9251 3.0677 34.7486 5.30273 34.7486H101.704C103.939 34.7486 105.754 32.9251 105.754 30.6802V5.32611C105.754 3.08122 103.939 1.25764 101.704 1.25764H5.30273Z" fill="white"/>
<path d="M35.5539 10.5074H34.8402C34.8402 10.4068 34.7714 10.1302 34.6399 9.67112H33.6194C33.4817 10.1239 33.4128 10.4005 33.4128 10.5074H32.7429C32.7429 10.4509 32.9182 9.97295 33.2626 9.08002C33.6069 8.1871 33.7822 7.69662 33.7822 7.60229H34.6211C34.6211 7.68404 34.7776 8.17452 35.0906 9.05487C35.3974 9.9478 35.5539 10.4257 35.5539 10.5074ZM34.5335 9.24981C34.283 8.48264 34.1516 8.06762 34.1516 8.00474H34.114C34.114 8.06133 33.9825 8.47636 33.7196 9.24981H34.5335Z" fill="white"/>
<path d="M38.4213 10.5074H37.8703C37.8703 10.4446 37.6637 10.1239 37.2568 9.53906C36.8311 8.92282 36.5869 8.5078 36.5306 8.28142H36.4993C36.5368 8.60841 36.5556 8.90395 36.5556 9.16177C36.5556 9.52649 36.5681 9.97924 36.5869 10.5074H36.0422C36.0673 10.0484 36.0735 9.53906 36.0735 8.9857C36.0735 8.44491 36.061 7.97959 36.0422 7.60229H36.6996C36.6996 7.68404 36.8812 7.99845 37.2505 8.54553C37.6387 9.13033 37.8641 9.52649 37.9204 9.734H37.9517C37.9142 9.40072 37.8954 9.10518 37.8954 8.84107C37.8954 8.43863 37.8829 8.02361 37.8641 7.60229H38.4213C38.4025 7.9733 38.39 8.43234 38.39 8.9857C38.39 9.54535 38.4025 10.0547 38.4213 10.5074Z" fill="white"/>
<path d="M41.6393 8.95438C41.6393 9.37569 41.5016 9.7467 41.2324 10.0611C40.9632 10.3755 40.5875 10.5327 40.0992 10.5327C39.8801 10.5327 39.5796 10.5264 39.1914 10.5076C39.2102 10.0611 39.2227 9.55176 39.2227 8.98583C39.2227 8.44504 39.2102 7.97971 39.1914 7.60242H39.5796C39.6422 7.60242 39.7361 7.60242 39.8613 7.59613C39.9865 7.58984 40.0679 7.58984 40.1055 7.58984C40.6376 7.58984 41.0258 7.7219 41.2699 7.99229C41.5203 8.26268 41.6393 8.58338 41.6393 8.95438ZM41.032 9.04871C41.032 8.76574 40.9506 8.5205 40.7816 8.32556C40.6188 8.13063 40.3621 8.03002 40.0241 8.03002C39.9615 8.03002 39.8738 8.03631 39.7611 8.04888C39.7736 8.34443 39.7862 8.65884 39.7862 8.97954C39.7862 9.33797 39.7924 9.69011 39.8112 10.036C39.9051 10.0548 40.0053 10.0674 40.0992 10.0674C40.4185 10.0674 40.6564 9.96679 40.8066 9.77185C40.9569 9.57692 41.032 9.33797 41.032 9.04871Z" fill="white"/>
<path d="M44.6067 10.5076H43.9494C43.7803 9.97936 43.6489 9.65866 43.5549 9.5329C43.461 9.40714 43.317 9.35054 43.1104 9.35054C43.0228 9.35054 42.9414 9.35054 42.8663 9.35054C42.8663 9.73412 42.8725 10.1177 42.8851 10.5076H42.2653C42.284 10.0611 42.2966 9.55176 42.2966 8.98583C42.2966 8.44504 42.284 7.97971 42.2653 7.60242H42.6472C42.691 7.60242 42.7849 7.60242 42.9289 7.59613C43.0729 7.58984 43.1981 7.58984 43.3233 7.58984C44.0057 7.58984 44.3438 7.82251 44.3438 8.28784C44.3438 8.65884 44.1497 8.91666 43.7615 9.06128V9.09273C43.9118 9.13674 44.0433 9.24993 44.156 9.44487C44.2624 9.6398 44.4189 9.99823 44.6067 10.5076ZM43.7741 8.45762C43.7741 8.16207 43.5862 8.01115 43.2044 8.01115C43.0666 8.01115 42.9414 8.02373 42.835 8.04259C42.8538 8.27526 42.86 8.5708 42.86 8.94181C42.9414 8.94181 43.0103 8.9481 43.0666 8.9481C43.5424 8.9481 43.7741 8.7846 43.7741 8.45762Z" fill="white"/>
<path d="M47.7934 9.0047C47.7934 9.46374 47.6557 9.84104 47.374 10.1429C47.0985 10.4447 46.7542 10.5956 46.341 10.5956C45.9528 10.5956 45.621 10.4573 45.358 10.1806C45.0951 9.90392 44.9636 9.55178 44.9636 9.13047C44.9636 8.67143 45.1014 8.29414 45.3831 7.9923C45.6586 7.69047 46.0029 7.53955 46.4161 7.53955C46.8042 7.53955 47.1361 7.67789 47.399 7.95457C47.6619 8.22497 47.7934 8.57711 47.7934 9.0047ZM47.1799 9.06759C47.1799 8.75946 47.0985 8.50165 46.942 8.313C46.7855 8.11807 46.5851 8.02374 46.3535 8.02374C46.1344 8.02374 45.9528 8.11807 45.8025 8.313C45.6523 8.50794 45.5772 8.75318 45.5772 9.04872C45.5772 9.35684 45.6586 9.60837 45.8151 9.80331C45.9716 9.99824 46.1719 10.0926 46.3973 10.0926C46.6164 10.0926 46.798 9.99195 46.9482 9.79702C47.1048 9.60837 47.1799 9.36313 47.1799 9.06759Z" fill="white"/>
<path d="M49.0455 10.5074H48.4194C48.4382 10.0484 48.4507 9.53906 48.4507 8.9857C48.4507 8.44491 48.4382 7.97959 48.4194 7.60229H49.0455C49.0267 7.97959 49.0142 8.43863 49.0142 8.9857C49.0205 9.55164 49.0267 10.0547 49.0455 10.5074Z" fill="white"/>
<path d="M52.2634 8.95438C52.2634 9.37569 52.1257 9.7467 51.8565 10.0611C51.5873 10.3755 51.2117 10.5327 50.7233 10.5327C50.5042 10.5327 50.2037 10.5264 49.8156 10.5076C49.8343 10.0611 49.8469 9.55176 49.8469 8.98583C49.8469 8.44504 49.8343 7.97971 49.8156 7.60242H50.2037C50.2663 7.60242 50.3602 7.60242 50.4854 7.59613C50.6106 7.58984 50.692 7.58984 50.7296 7.58984C51.2617 7.58984 51.6499 7.7219 51.8941 7.99229C52.1445 8.26268 52.2634 8.58338 52.2634 8.95438ZM51.6624 9.04871C51.6624 8.76574 51.581 8.5205 51.412 8.32556C51.2492 8.13063 50.9925 8.03002 50.6545 8.03002C50.5919 8.03002 50.5042 8.03631 50.3915 8.04888C50.404 8.34443 50.4166 8.65884 50.4166 8.97954C50.4166 9.33797 50.4228 9.69011 50.4416 10.036C50.5355 10.0548 50.6357 10.0674 50.7296 10.0674C51.0489 10.0674 51.2868 9.96679 51.437 9.77185C51.581 9.57692 51.6624 9.33797 51.6624 9.04871Z" fill="white"/>
<path d="M56.5394 10.5074H55.8257C55.8257 10.4068 55.7569 10.1302 55.6254 9.67112H54.5987C54.4609 10.1239 54.3921 10.4005 54.3921 10.5074H53.7222C53.7222 10.4509 53.8975 9.97295 54.2418 9.08002C54.5861 8.1871 54.7614 7.69662 54.7614 7.60229H55.6003C55.6003 7.68404 55.7569 8.17452 56.0699 9.05487C56.3829 9.9478 56.5394 10.4257 56.5394 10.5074ZM55.5127 9.24981C55.2623 8.48264 55.1308 8.06762 55.1308 8.00474H55.0932C55.0932 8.06133 54.9618 8.47636 54.6988 9.24981H55.5127Z" fill="white"/>
<path d="M59.1251 8.36323C59.1251 8.72166 58.9936 8.97948 58.7307 9.14926C58.4677 9.31904 58.1484 9.40079 57.7665 9.40079C57.6977 9.40079 57.6476 9.40079 57.6163 9.3945C57.6163 9.67118 57.6225 10.0422 57.6413 10.5012H57.0153C57.034 10.0736 57.0466 9.56428 57.0466 8.97948C57.0466 8.44498 57.034 7.97965 57.0153 7.59607H57.4034C57.4598 7.59607 57.5662 7.59607 57.7164 7.58978C57.8667 7.5835 58.0044 7.5835 58.1234 7.5835C58.4051 7.5835 58.643 7.64638 58.8371 7.77843C59.0312 7.91048 59.1251 8.10542 59.1251 8.36323ZM58.5554 8.489C58.5554 8.1683 58.3425 8.01109 57.923 8.01109C57.8166 8.01109 57.7039 8.02367 57.5912 8.04253C57.61 8.3255 57.6163 8.63991 57.6163 8.99834C57.6538 8.99834 57.6977 9.00463 57.7477 9.00463C58.2862 9.00463 58.5554 8.82856 58.5554 8.489Z" fill="white"/>
<path d="M61.7921 8.36323C61.7921 8.72166 61.6606 8.97948 61.3977 9.14926C61.1347 9.31904 60.8155 9.40079 60.4273 9.40079C60.3584 9.40079 60.3083 9.40079 60.277 9.3945C60.277 9.67118 60.2833 10.0422 60.3021 10.5012H59.676C59.6948 10.0736 59.7073 9.56428 59.7073 8.97948C59.7073 8.44498 59.6948 7.97965 59.676 7.59607H60.0642C60.1205 7.59607 60.227 7.59607 60.3772 7.58978C60.5275 7.5835 60.6652 7.5835 60.7841 7.5835C61.0659 7.5835 61.3038 7.64638 61.4979 7.77843C61.6919 7.91048 61.7921 8.10542 61.7921 8.36323ZM61.2161 8.489C61.2161 8.1683 61.0033 8.01109 60.5838 8.01109C60.4774 8.01109 60.3647 8.02367 60.252 8.04253C60.2708 8.3255 60.277 8.63991 60.277 8.99834C60.3146 8.99834 60.3584 9.00463 60.4085 9.00463C60.9469 9.00463 61.2161 8.82856 61.2161 8.489Z" fill="white"/>
<path d="M66.1433 9.0047C66.1433 9.46374 66.0055 9.84104 65.7238 10.1429C65.4483 10.4447 65.104 10.5956 64.6908 10.5956C64.3027 10.5956 63.9708 10.4573 63.7079 10.1806C63.445 9.90392 63.3135 9.55178 63.3135 9.13047C63.3135 8.67143 63.4512 8.29414 63.7329 7.9923C64.0084 7.69047 64.3527 7.53955 64.7659 7.53955C65.1541 7.53955 65.4859 7.67789 65.7488 7.95457C66.0118 8.22497 66.1433 8.57711 66.1433 9.0047ZM65.536 9.06759C65.536 8.75946 65.4546 8.50165 65.2981 8.313C65.1416 8.11807 64.9412 8.02374 64.7096 8.02374C64.4905 8.02374 64.3089 8.11807 64.1587 8.313C64.0084 8.50794 63.9333 8.75318 63.9333 9.04872C63.9333 9.35684 64.0147 9.60837 64.1712 9.80331C64.3277 9.99824 64.528 10.0926 64.7534 10.0926C64.9725 10.0926 65.1541 9.99195 65.3043 9.79702C65.4546 9.60837 65.536 9.36313 65.536 9.06759Z" fill="white"/>
<path d="M69.1546 10.5074H68.6036C68.6036 10.4446 68.397 10.1239 67.9901 9.53906C67.5644 8.92282 67.3202 8.5078 67.2639 8.28142H67.2263C67.2639 8.60841 67.2827 8.90395 67.2827 9.16177C67.2827 9.52649 67.2952 9.97924 67.314 10.5074H66.7693C66.7943 10.0484 66.8006 9.53906 66.8006 8.9857C66.8006 8.44491 66.7881 7.97959 66.7693 7.60229H67.4266C67.4266 7.68404 67.6082 7.99845 67.9776 8.54553C68.3657 9.13033 68.5911 9.52649 68.6475 9.734H68.6788C68.6412 9.40072 68.6224 9.10518 68.6224 8.84107C68.6224 8.43863 68.6099 8.02361 68.5911 7.60229H69.1483C69.1295 7.9733 69.117 8.43234 69.117 8.9857C69.1233 9.54535 69.1358 10.0547 69.1546 10.5074Z" fill="white"/>
<path d="M42.954 19.814C42.954 21.254 42.5283 22.4048 41.6768 23.26C40.7127 24.2787 39.4543 24.788 37.9017 24.788C36.4179 24.788 35.1596 24.2724 34.1203 23.2411C33.081 22.2098 32.5614 20.927 32.5614 19.399C32.5614 17.871 33.081 16.5882 34.1203 15.5569C35.1596 14.5256 36.4179 14.01 37.9017 14.01C38.6404 14.01 39.3416 14.1546 40.0115 14.4439C40.6814 14.7332 41.2198 15.1167 41.6205 15.5946L40.719 16.5001C40.0366 15.6827 39.1037 15.2739 37.908 15.2739C36.8249 15.2739 35.892 15.6575 35.1032 16.4184C34.3144 17.1793 33.92 18.1728 33.92 19.3927C33.92 20.6126 34.3144 21.6062 35.1032 22.367C35.892 23.1279 36.8249 23.5115 37.908 23.5115C39.0536 23.5115 40.0115 23.1279 40.7753 22.3608C41.2699 21.864 41.5579 21.166 41.6393 20.2731H37.908V19.0343H42.8914C42.9352 19.3047 42.954 19.5625 42.954 19.814Z" fill="white"/>
<path d="M44.5191 18.3363C45.1953 17.6194 46.0655 17.261 47.1173 17.261C48.1691 17.261 49.033 17.6194 49.7154 18.3363C50.3916 19.0531 50.7359 19.9461 50.7359 21.0276C50.7359 22.1029 50.3978 23.0021 49.7154 23.719C49.033 24.4358 48.1691 24.7943 47.1173 24.7943C46.0655 24.7943 45.2015 24.4358 44.5191 23.719C43.843 23.0021 43.4987 22.1092 43.4987 21.0276C43.4987 19.9461 43.843 19.0531 44.5191 18.3363ZM45.502 22.8764C45.9591 23.3417 46.4912 23.5743 47.1173 23.5743C47.7371 23.5743 48.2755 23.3417 48.7325 22.8764C49.1895 22.411 49.4149 21.7948 49.4149 21.0213C49.4149 20.2542 49.1895 19.6379 48.7325 19.1663C48.2755 18.701 47.7371 18.4683 47.1173 18.4683C46.4975 18.4683 45.9591 18.701 45.502 19.1663C45.045 19.6316 44.8196 20.2479 44.8196 21.0213C44.8196 21.7948 45.0513 22.411 45.502 22.8764Z" fill="white"/>
<path d="M52.2009 18.3363C52.877 17.6194 53.7473 17.261 54.799 17.261C55.8508 17.261 56.7148 17.6194 57.3972 18.3363C58.0733 19.0531 58.4177 19.9461 58.4177 21.0276C58.4177 22.1029 58.0796 23.0021 57.3972 23.719C56.7148 24.4358 55.8508 24.7943 54.799 24.7943C53.7473 24.7943 52.8833 24.4358 52.2009 23.719C51.5185 23.0021 51.1804 22.1092 51.1804 21.0276C51.1804 19.9461 51.5185 19.0531 52.2009 18.3363ZM53.1838 22.8764C53.6408 23.3417 54.173 23.5743 54.799 23.5743C55.4188 23.5743 55.9573 23.3417 56.4143 22.8764C56.8713 22.411 57.0967 21.7948 57.0967 21.0213C57.0967 20.2542 56.8713 19.6379 56.4143 19.1663C55.9573 18.701 55.4188 18.4683 54.799 18.4683C54.1792 18.4683 53.6408 18.701 53.1838 19.1663C52.7268 19.6316 52.5014 20.2479 52.5014 21.0213C52.5014 21.7948 52.7268 22.411 53.1838 22.8764Z" fill="white"/>
<path d="M62.318 27.9008C61.4854 27.9008 60.803 27.6932 60.2771 27.2719C59.7512 26.8506 59.3756 26.3727 59.1439 25.8382L60.3522 25.3352C60.4837 25.7187 60.7341 26.0394 61.091 26.3035C61.4478 26.5614 61.861 26.6934 62.318 26.6934C63.0443 26.6934 63.614 26.4733 64.0334 26.0394C64.4529 25.5993 64.6595 25.0082 64.6595 24.2599V23.5808H64.6032C64.3715 23.9266 64.046 24.2159 63.6265 24.4485C63.207 24.6812 62.7312 24.7944 62.2053 24.7944C61.2976 24.7944 60.5087 24.436 59.8514 23.7128C59.194 22.9897 58.8622 22.0967 58.8622 21.034C58.8622 19.9713 59.194 19.0721 59.8514 18.3553C60.5087 17.6321 61.2976 17.2737 62.2053 17.2737C62.7312 17.2737 63.207 17.3869 63.6265 17.6195C64.046 17.8522 64.3715 18.1415 64.6032 18.4873H64.6595V17.5063H65.9241V24.2096C65.9241 25.4232 65.5736 26.3413 64.8786 26.9701C64.1712 27.5863 63.3197 27.9008 62.318 27.9008ZM62.4182 23.5745C63.038 23.5745 63.5702 23.3418 64.0021 22.8828C64.4404 22.4237 64.6532 21.8012 64.6532 21.0215C64.6532 20.2417 64.4341 19.6255 64.0021 19.1601C63.5639 18.7011 63.038 18.4684 62.4182 18.4684C61.8047 18.4684 61.2788 18.7011 60.8405 19.1664C60.4023 19.6318 60.1832 20.248 60.1832 21.0215C60.1832 21.7886 60.4023 22.4049 60.8405 22.8765C61.2788 23.3418 61.8047 23.5745 62.4182 23.5745Z" fill="white"/>
<path d="M68.491 24.5553H67.17V14.2363H68.491V24.5553Z" fill="white"/>
<path d="M72.8483 24.788C71.784 24.788 70.92 24.4295 70.2564 23.719C69.5928 23.0084 69.261 22.1092 69.261 21.0213C69.261 19.9901 69.5865 19.1097 70.2314 18.3677C70.8762 17.6257 71.7026 17.261 72.7043 17.261C73.7498 17.261 74.5825 17.6005 75.2086 18.286C75.8346 18.9651 76.1476 19.8832 76.1476 21.0276L76.1351 21.2729H70.582C70.6195 21.9834 70.8574 22.5494 71.2894 22.9581C71.7277 23.3731 72.2348 23.5806 72.817 23.5806C73.7624 23.5806 74.4072 23.1782 74.739 22.367L75.916 22.8575C75.6844 23.4046 75.3087 23.8636 74.7828 24.2346C74.2632 24.5993 73.6184 24.788 72.8483 24.788ZM74.7453 20.1724C74.714 19.77 74.5324 19.3864 74.1943 19.0217C73.8563 18.657 73.3492 18.4746 72.6793 18.4746C72.1909 18.4746 71.7652 18.6255 71.4084 18.9337C71.0515 19.2418 70.8011 19.6568 70.6696 20.1724H74.7453Z" fill="white"/>
<path d="M81.3503 24.5553H80.0293V14.2363H83.529C84.3992 14.2363 85.1505 14.5256 85.7891 15.1104C86.4276 15.6952 86.7407 16.4246 86.7407 17.3113C86.7407 18.1979 86.4214 18.9273 85.7891 19.5121C85.1505 20.0907 84.3992 20.3862 83.529 20.3862H81.3503V24.5553ZM81.3503 19.1097H83.5603C84.1175 19.1097 84.562 18.921 84.8938 18.55C85.2319 18.1727 85.3946 17.764 85.3946 17.3113C85.3946 16.8585 85.2256 16.4435 84.8938 16.0725C84.5557 15.6952 84.1112 15.5128 83.5603 15.5128H81.3503V19.1097Z" fill="white"/>
<path d="M88.9256 24.5553H87.6046V14.2363H88.9256V24.5553Z" fill="white"/>
<path d="M92.3251 24.7879C91.5801 24.7879 90.954 24.5741 90.4532 24.1402C89.9523 23.7063 89.7019 23.1341 89.7019 22.4235C89.7019 21.6564 89.9962 21.0527 90.5909 20.6125C91.1857 20.1724 91.9182 19.9586 92.7884 19.9586C93.5647 19.9586 94.197 20.1032 94.6979 20.3925V20.1849C94.6979 19.663 94.5226 19.248 94.1657 18.9399C93.8089 18.6255 93.3769 18.4683 92.8573 18.4683C92.4754 18.4683 92.1248 18.5626 91.818 18.7449C91.505 18.9273 91.2921 19.1788 91.1794 19.4932L89.9711 18.9713C90.1339 18.55 90.4532 18.1539 90.9352 17.7954C91.4111 17.437 92.0434 17.2546 92.8322 17.2546C93.7337 17.2546 94.4788 17.5187 95.0735 18.047C95.6683 18.5752 95.9625 19.3235 95.9625 20.2793V24.549H94.6979V23.568H94.6415C94.1094 24.3855 93.3393 24.7879 92.3251 24.7879ZM92.5442 23.5743C93.0889 23.5743 93.5835 23.3668 94.028 22.9643C94.4725 22.5556 94.6979 22.0714 94.6979 21.518C94.3222 21.2099 93.765 21.059 93.02 21.059C92.3815 21.059 91.8931 21.1973 91.5676 21.474C91.242 21.7507 91.0792 22.0777 91.0792 22.455C91.0792 22.8008 91.2295 23.0775 91.5237 23.2787C91.818 23.4737 92.1561 23.5743 92.5442 23.5743Z" fill="white"/>
<path d="M98.8299 27.668H97.4651L99.0991 24.1089L96.2004 17.4937H97.6341L99.7314 22.5682H99.7627L101.797 17.4937H103.231L98.8299 27.668Z" fill="white"/>
<path d="M7.93841 19.2231C7.93841 15.9281 7.93841 12.6267 7.93841 9.33172C7.93841 8.92928 8.01354 8.55827 8.30153 8.25015C8.41422 8.13068 8.48934 8.09924 8.62708 8.23758C10.8371 10.5013 13.0471 12.7588 15.2633 15.0163C16.697 16.4814 18.1307 17.9403 19.5706 19.3991C19.7083 19.5375 19.7209 19.6129 19.5769 19.7639C16.0584 23.279 12.54 26.8004 9.03402 30.3281C8.82116 30.5419 8.6709 30.523 8.4643 30.3595C8.08867 30.0702 7.94467 29.6804 7.94467 29.215C7.94467 27.2594 7.94467 25.3101 7.93841 23.3544C7.93215 21.9836 7.93215 20.6002 7.93841 19.2231C7.93215 19.2231 7.93841 19.2231 7.93841 19.2231Z" fill="white"/>
<path d="M9.19678 7.8728C9.46598 7.8728 9.6538 7.94826 9.83536 8.04887C14.3305 10.5767 18.8256 13.1109 23.3207 15.6325C23.5273 15.7456 23.521 15.8148 23.3645 15.972C22.3566 16.9656 21.3611 17.9654 20.3657 18.9715C20.2593 19.0784 20.1904 19.1413 20.0464 18.9966C16.4716 15.3306 12.8905 11.6772 9.30947 8.01743C9.28443 7.98599 9.25938 7.94826 9.19678 7.8728Z" fill="white"/>
<path d="M10.2047 30.2462C13.4665 26.9324 16.7345 23.6248 19.99 20.3046C20.1904 20.0971 20.2843 20.1285 20.4658 20.3172C21.2922 21.1849 22.1312 22.0338 22.9763 22.8828C23.1266 23.0337 23.1391 23.0903 22.9388 23.2035C18.7504 25.5049 14.5621 27.819 10.38 30.1268C10.3049 30.1582 10.2423 30.2211 10.2047 30.2462Z" fill="white"/>
<path d="M28.8425 19.3111C28.83 19.6821 28.6547 19.9462 28.3918 20.1411C28.1977 20.2858 27.9786 20.4052 27.7657 20.5247C26.5011 21.229 25.2302 21.927 23.9655 22.6313C23.7965 22.7256 23.6963 22.7256 23.5523 22.5747C22.6508 21.644 21.743 20.7134 20.8352 19.7953C20.7037 19.6632 20.6975 19.5878 20.8352 19.4557C21.8995 18.4056 22.9576 17.3429 24.0093 16.2802C24.1346 16.1544 24.2222 16.1418 24.3787 16.2299C25.6308 16.9404 26.8892 17.6447 28.1413 18.349C28.5232 18.5691 28.83 18.852 28.8425 19.3111Z" fill="white"/>
</g>
<defs>
<clipPath id="clip0_110_2336">
<rect width="107" height="36" fill="white"/>
</clipPath>
</defs>
</svg>
