<svg width="105" height="37" viewBox="0 0 105 37" fill="none" xmlns="http://www.w3.org/2000/svg">
<path d="M14.3177 9.66637H16.2792C16.4096 9.66637 16.5138 9.56306 16.5138 9.44037C16.5138 9.31123 16.4096 9.20791 16.2792 9.20791H14.3177C14.1938 9.20791 14.083 9.31123 14.083 9.44037C14.083 9.56306 14.1873 9.66637 14.3177 9.66637ZM15.2952 26.72C14.7347 26.72 14.272 27.1784 14.272 27.7337C14.272 28.2891 14.7282 28.7475 15.2952 28.7475C15.8622 28.7475 16.3183 28.2955 16.3183 27.7337C16.3183 27.172 15.8622 26.72 15.2952 26.72ZM10.2902 25.8547H20.3132V11.1645H10.2902V25.8547ZM42.4119 21.0311C41.9362 21.0311 41.5061 21.1861 41.1216 21.496C40.7371 21.8124 40.4829 22.2193 40.3656 22.7294C40.307 22.9683 40.2809 23.162 40.2809 23.3105V24.7376C40.2809 25.3639 40.4699 25.8934 40.8609 26.3196C41.2454 26.7458 41.7472 26.9653 42.3663 26.9653C43.0897 26.9653 43.6567 26.6877 44.0607 26.1323C44.4647 25.577 44.6668 24.8474 44.6668 23.9369C44.6668 23.1039 44.4778 22.413 44.0998 21.8706C43.6762 21.3152 43.1158 21.0311 42.4119 21.0311ZM77.5575 20.9084C76.7885 20.9084 76.1954 21.2507 75.7979 21.9287C75.446 22.4905 75.2766 23.1749 75.2766 23.9885C75.2766 24.7763 75.446 25.4543 75.7979 26.0161C76.2085 26.6941 76.795 27.0364 77.5444 27.0364C78.2743 27.0364 78.8543 26.6941 79.2714 25.9967C79.6298 25.4285 79.8123 24.744 79.8123 23.9563C79.8123 23.1685 79.6429 22.4905 79.2975 21.9287C78.8804 21.2507 78.3069 20.9084 77.5575 20.9084ZM51.9396 21.0311C51.4639 21.0311 51.0338 21.1861 50.6493 21.496C50.2648 21.8124 50.0106 22.2193 49.8868 22.7294C49.8281 22.9683 49.8021 23.162 49.8021 23.3105V24.7376C49.8021 25.3639 49.9911 25.8934 50.3821 26.3196C50.7666 26.7458 51.2684 26.9653 51.8875 26.9653C52.6174 26.9653 53.1778 26.6877 53.5884 26.1323C53.9924 25.577 54.1945 24.8474 54.1945 23.9369C54.1945 23.1039 54.0055 22.413 53.621 21.8706C53.2039 21.3152 52.6434 21.0311 51.9396 21.0311ZM32.0371 17.9575H31.998C31.8741 18.4611 31.6917 19.2102 31.4245 20.2046L30.4274 23.317H33.6532L32.6431 20.2046C32.5323 19.8817 32.3303 19.1327 32.0371 17.9575ZM92.1683 20.818C91.5427 20.818 91.0279 21.0828 90.6369 21.5994C90.3175 22.0126 90.122 22.5034 90.0634 23.0781H94.0778C94.0908 22.5163 93.967 22.0255 93.7063 21.6123C93.3674 21.0892 92.8526 20.818 92.1683 20.818ZM40.5286 12.3397C40.5546 12.2557 40.5546 12.1782 40.5546 12.0943V11.4873C39.7596 11.4809 38.9971 11.6423 38.9971 12.3138C38.9971 12.7529 39.2838 12.9531 39.6357 12.9531C40.0984 12.9467 40.4178 12.6561 40.5286 12.3397ZM30.0168 9.56306C29.8995 9.18854 29.7952 8.77527 29.704 8.42013H29.6845C29.5932 8.77527 29.489 9.20145 29.3912 9.56306L28.9155 11.0741H30.4991L30.0168 9.56306ZM93.9474 9.12397C95.3942 9.12397 95.8764 10.3056 95.8764 11.2807C95.8764 11.4873 95.8569 11.6552 95.8373 11.7521H92.8461C92.8721 12.5528 93.4978 12.895 94.2211 12.895C94.7425 12.895 95.114 12.8111 95.4594 12.6948L95.6223 13.4568C95.2378 13.6182 94.7034 13.7409 94.0647 13.7409C92.618 13.7409 91.7643 12.8627 91.7643 11.5067C91.7643 10.2798 92.5137 9.12397 93.9474 9.12397ZM76.0521 9.22728L76.1042 9.89238H76.1303C76.3323 9.54369 76.8146 9.13042 77.5575 9.13042C78.3395 9.13042 79.1411 9.62763 79.1411 11.0289V13.6569H78.0137V11.158C78.0137 10.5252 77.7725 10.0409 77.1599 10.0409C76.7103 10.0409 76.3975 10.3573 76.2802 10.6931C76.2411 10.7835 76.228 10.9191 76.228 11.0482V13.6569H75.1006V10.551C75.1006 10.0409 75.0811 9.61472 75.0615 9.23374H76.0521V9.22728ZM64.2044 9.12397C65.6511 9.12397 66.1334 10.3056 66.1334 11.2807C66.1334 11.4873 66.1138 11.6552 66.0943 11.7521H63.103C63.1291 12.5528 63.7547 12.895 64.4781 12.895C64.9994 12.895 65.3644 12.8111 65.7163 12.6948L65.8792 13.4568C65.4947 13.6182 64.9603 13.7409 64.3217 13.7409C62.8749 13.7409 62.0212 12.8627 62.0212 11.5067C62.0212 10.2798 62.7772 9.12397 64.2044 9.12397ZM59.5839 7.19971H60.7113V13.6505H59.5839V7.19971ZM50.6428 9.91175C50.1996 9.91175 49.7434 10.0474 49.4436 10.2411L49.2221 9.5114C49.5544 9.31123 50.1279 9.11751 50.8383 9.11751C52.272 9.11751 52.6825 10.0151 52.6825 10.9901V12.5786C52.6825 12.9789 52.7021 13.3664 52.7542 13.644H51.7376L51.6529 13.1533H51.6268C51.3596 13.4955 50.8904 13.7409 50.3039 13.7409C49.4045 13.7409 48.9027 13.0952 48.9027 12.4236C48.9027 11.313 49.8998 10.7447 51.5551 10.7512V10.6802C51.5486 10.396 51.4248 9.91175 50.6428 9.91175ZM43.9695 7.38051C44.354 7.38051 44.5951 7.64526 44.6016 7.98749C44.6016 8.31681 44.354 8.58801 43.9564 8.58801C43.5784 8.58801 43.3308 8.31681 43.3308 7.98749C43.3373 7.64526 43.598 7.38051 43.9695 7.38051ZM44.5299 9.22728V13.6505H43.4025V9.22728H44.5299ZM29.0197 7.52257H30.46L32.4672 13.644H31.2485L30.6881 11.907H28.733L28.1986 13.644H27.0321L29.0197 7.52257ZM21.5058 27.8306C21.5058 28.909 20.6195 29.7871 19.5312 29.7871H11.0592C9.97089 29.7871 9.08459 28.9154 9.08459 27.8306V9.18208C9.08459 8.10372 9.97089 7.22554 11.0592 7.22554H19.5312C20.6195 7.22554 21.5058 8.10372 21.5058 9.18208V27.8306ZM35.1195 28.2761L33.9986 24.7763H30.0885L29.0197 28.2761H27.0256L30.8901 16.3625H33.2818L37.1724 28.2761H35.1195ZM35.5562 13.6505H34.4483L32.7865 9.22728H34.0052L34.7285 11.4744C34.8589 11.8618 34.9501 12.217 35.0283 12.585H35.0544C35.1391 12.2234 35.2368 11.8748 35.3541 11.4744L36.071 9.22728H37.2571L35.5562 13.6505ZM37.8827 12.4301C37.8827 11.3194 38.8798 10.7512 40.5351 10.7576V10.6866C40.5351 10.396 40.4178 9.91175 39.6292 9.91175C39.1861 9.91175 38.7299 10.0474 38.4301 10.2411L38.2085 9.5114C38.5409 9.31123 39.1144 9.11751 39.8247 9.11751C41.2519 9.11751 41.669 10.0151 41.669 10.9901V12.5786C41.669 12.9789 41.6886 13.3664 41.7407 13.644H40.7241L40.6393 13.1533H40.6133C40.3461 13.4955 39.8769 13.7409 39.2903 13.7409C38.3845 13.7474 37.8827 13.1016 37.8827 12.4301ZM45.4227 27.3463C44.7059 28.0953 43.8131 28.4763 42.7508 28.4763C41.5973 28.4763 40.7762 28.0695 40.2744 27.2559V31.7695H38.3519V22.5098C38.3519 21.5929 38.3258 20.6501 38.2802 19.688H39.9746L40.0789 21.0505H40.1115C40.7566 20.0302 41.7277 19.5137 43.0376 19.5137C44.0607 19.5137 44.9144 19.914 45.5987 20.7147C46.283 21.5154 46.6218 22.5744 46.6218 23.8788C46.6284 25.3446 46.2243 26.4939 45.4227 27.3463ZM47.4299 13.6505H46.3025V7.19971H47.4299V13.6505ZM54.9504 27.3463C54.2336 28.0953 53.3407 28.4763 52.2785 28.4763C51.1315 28.4763 50.3039 28.0695 49.8086 27.2559V31.7695H47.8796V22.5098C47.8796 21.5929 47.8535 20.6501 47.8079 19.688H49.4958L49.6066 21.0505H49.6392C50.2843 20.0302 51.2553 19.5137 52.5652 19.5137C53.5884 19.5137 54.4421 19.914 55.1264 20.7147C55.8106 21.5154 56.156 22.5744 56.156 23.8788C56.1495 25.3446 55.752 26.4939 54.9504 27.3463ZM56.2733 13.7474C55.6933 13.7474 55.185 13.5278 54.8592 12.9854H54.8396L54.7875 13.6505H53.823C53.8425 13.3535 53.8621 12.8627 53.8621 12.4042V7.19971H54.9895V9.83426H55.0091C55.2828 9.40808 55.7715 9.12397 56.4428 9.12397C57.5311 9.12397 58.3131 10.0215 58.3066 11.3711C58.3001 12.9596 57.2769 13.7474 56.2733 13.7474ZM65.9705 27.4109C65.1819 28.1083 64.0936 28.4505 62.6925 28.4505C61.3956 28.4505 60.3594 28.2051 59.5774 27.7079L60.0271 26.1194C60.8677 26.6102 61.7997 26.862 62.8033 26.862C63.5331 26.862 64.0936 26.7006 64.4976 26.3777C64.9017 26.0549 65.1037 25.6222 65.1037 25.0734C65.1037 24.5955 64.9343 24.1887 64.6084 23.8594C64.2696 23.5301 63.7221 23.2266 62.9531 22.9425C60.8482 22.1676 59.799 21.0311 59.799 19.533C59.799 18.5515 60.1639 17.7508 60.9134 17.1245C61.6563 16.5046 62.6403 16.1882 63.8655 16.1882C64.9603 16.1882 65.8662 16.3754 66.5961 16.75L66.1073 18.3062C65.4296 17.9446 64.6606 17.7573 63.8003 17.7573C63.1226 17.7573 62.5882 17.9252 62.2037 18.248C61.8844 18.5451 61.7215 18.9067 61.7215 19.3329C61.7215 19.7978 61.9039 20.1917 62.2754 20.5016C62.5947 20.7857 63.1812 21.0892 64.0219 21.4186C65.0581 21.8254 65.8206 22.3161 66.3093 22.8714C66.7981 23.4268 67.0392 24.1112 67.0392 24.9378C67.0327 25.9515 66.6743 26.7781 65.9705 27.4109ZM72.7611 21.1151H70.6365V25.2929C70.6365 26.3519 71.0145 26.8814 71.764 26.8814C72.1094 26.8814 72.3896 26.8556 72.6177 26.7974L72.6698 28.2439C72.2918 28.3859 71.79 28.4569 71.1709 28.4569C70.415 28.4569 69.8154 28.2309 69.3853 27.766C68.9552 27.3076 68.7401 26.5327 68.7401 25.4543V21.1151H67.4759V19.688H68.7401V18.1124L70.63 17.5442V19.6816H72.7545V21.1151H72.7611ZM71.6727 13.7474C70.415 13.7474 69.4374 12.895 69.4374 11.4679C69.4374 10.0151 70.4019 9.12397 71.7509 9.12397C73.0804 9.12397 73.9732 10.0538 73.9732 11.3969C73.9667 13.0241 72.8067 13.7474 71.6727 13.7474ZM80.666 27.1655C79.8644 28.0372 78.8087 28.4699 77.4923 28.4699C76.215 28.4699 75.1984 28.0501 74.4489 27.2172C73.693 26.3842 73.3215 25.3252 73.3215 24.0531C73.3215 22.7229 73.7125 21.6316 74.488 20.7857C75.2701 19.9334 76.3127 19.5137 77.6357 19.5137C78.913 19.5137 79.9361 19.9269 80.7051 20.7664C81.4415 21.5735 81.8065 22.6261 81.8065 23.911C81.8 25.2348 81.422 26.3131 80.666 27.1655ZM82.6537 9.22728H83.2858V8.3943L84.3937 8.08435V9.22082H85.469V10.0538H84.3937V12.0104C84.3937 12.5528 84.5371 12.8304 84.9737 12.8304C85.1757 12.8304 85.2865 12.824 85.4168 12.7852L85.4364 13.6311C85.2735 13.6957 84.9672 13.7474 84.6218 13.7474C84.1982 13.7474 83.8593 13.6117 83.6508 13.3857C83.4031 13.1339 83.2923 12.7206 83.2923 12.1395V10.0603H82.6602V9.22728H82.6537ZM87.6 21.3669C87.411 21.3346 87.209 21.3152 86.9939 21.3152C86.3162 21.3152 85.7948 21.5671 85.4234 22.0707C85.104 22.5227 84.9411 23.0781 84.9411 23.7625V28.2697H83.0121V22.3807C83.0121 21.3992 82.9926 20.4952 82.96 19.6816H84.6348L84.7065 21.3282H84.7586C84.9606 20.7664 85.28 20.3079 85.7231 19.9721C86.1532 19.6622 86.6159 19.5137 87.1177 19.5137C87.2937 19.5137 87.4566 19.5201 87.5935 19.546V21.3669H87.6ZM87.8932 10.9966V13.6505H86.7658V7.19971H87.8932V9.82781H87.9128C88.0497 9.62117 88.2452 9.44683 88.4733 9.3306C88.7013 9.20145 88.9685 9.13042 89.2553 9.13042C90.0178 9.13042 90.8128 9.62763 90.8128 11.0482V13.6569H89.6854V11.1709C89.6854 10.5381 89.4443 10.0409 88.8252 10.0409C88.382 10.0409 88.0757 10.3315 87.9454 10.6672C87.8998 10.7576 87.8932 10.8803 87.8932 10.9966ZM95.8438 24.447H90.0634C90.0894 25.2929 90.3632 25.9386 90.9041 26.3842C91.3928 26.7845 92.0184 26.9847 92.7939 26.9847C93.6542 26.9847 94.4297 26.8491 95.1335 26.5779L95.4398 27.9081C94.6252 28.2632 93.6477 28.4376 92.5333 28.4376C91.1908 28.4376 90.1351 28.0501 89.3726 27.2624C88.6036 26.481 88.2191 25.4285 88.2191 24.1112C88.2191 22.8133 88.5775 21.735 89.2879 20.8761C90.0438 19.9592 91.0539 19.5008 92.3247 19.5008C93.576 19.5008 94.5209 19.9592 95.1596 20.8761C95.6679 21.6058 95.9286 22.5098 95.9286 23.5817C95.909 23.9175 95.8895 24.2081 95.8438 24.447ZM56.0257 9.99569C55.5695 9.99569 55.1459 10.325 55.0286 10.8158C55.0091 10.8997 54.9895 10.9966 54.9895 11.1063V11.8231C54.9895 11.9135 54.996 12.0039 55.0156 12.0878C55.1329 12.5398 55.5304 12.8692 56.0127 12.8692C56.7165 12.8692 57.1531 12.3138 57.1531 11.4163C57.1531 10.635 56.7751 9.99569 56.0257 9.99569ZM64.1392 9.88592C63.4419 9.88592 63.1486 10.5123 63.103 10.9643H65.0646C65.0776 10.5575 64.8952 9.88592 64.1392 9.88592ZM71.7183 9.93112C70.9233 9.93112 70.5974 10.706 70.5974 11.4421C70.5974 12.2945 71.0276 12.9402 71.7053 12.9402C72.344 12.9402 72.7936 12.3203 72.7936 11.4227C72.8001 10.7318 72.4873 9.93112 71.7183 9.93112ZM50.0171 12.3138C50.0171 12.7529 50.3039 12.9531 50.6558 12.9531C51.112 12.9531 51.4378 12.6625 51.5486 12.3461C51.5747 12.2622 51.5747 12.1847 51.5747 12.1008V11.4938C50.7796 11.4744 50.0171 11.6423 50.0171 12.3138ZM93.8823 9.88592C93.185 9.88592 92.8917 10.5123 92.8461 10.9643H94.8077C94.8142 10.5575 94.6317 9.88592 93.8823 9.88592Z" fill="white"/>
<path d="M99.9624 37H5.03103C2.25484 37 0 34.7658 0 32.0215V4.98499C0 2.23421 2.25484 0 5.03103 0H99.9624C102.739 0 104.993 2.23421 104.993 4.98499V32.015C105 34.7658 102.739 37 99.9624 37ZM5.03103 1.29145C2.97821 1.29145 1.30338 2.95096 1.30338 4.98499V32.015C1.30338 34.049 2.97821 35.7021 5.03103 35.7021H99.9624C102.022 35.7021 103.69 34.049 103.69 32.015V4.98499C103.69 2.9445 102.015 1.29145 99.9624 1.29145H5.03103Z" fill="white"/>
</svg>
