<svg width="337" height="337" viewBox="0 0 337 337" fill="none" xmlns="http://www.w3.org/2000/svg">
<g opacity="0.3">
<path d="M7.02427 336.996C3.14881 336.996 0.00351033 333.851 0.00351033 329.975C0.00351033 326.1 3.14881 322.955 7.02427 322.955H14.045V248.633L11.995 250.683C10.661 252.017 8.90583 252.747 7.02427 252.747C5.14271 252.747 3.38752 252.017 2.05357 250.697C-0.684524 247.959 -0.684524 243.508 2.05357 240.77L88.3528 154.456C90.9926 151.803 94.517 150.342 98.2661 150.342C102.029 150.342 105.554 151.803 108.193 154.442L194.507 240.756C197.245 243.494 197.245 247.945 194.507 250.683C193.201 252.017 191.446 252.747 189.564 252.747C187.682 252.747 185.927 252.017 184.593 250.697L182.543 248.633V322.955H266.792V294.801C237.123 292.976 212.775 269.19 210.64 239.211C210.626 215.804 244.157 134.967 264.153 88.8404C265.795 84.979 269.587 82.4796 273.813 82.4796C275.245 82.4796 276.621 82.7604 277.941 83.3361C280.441 84.4033 282.421 86.3691 283.488 88.8825C303.469 134.981 337 215.762 337 238.706C337 238.804 336.986 239.141 336.986 239.239C334.852 269.19 310.518 293.004 280.834 294.844V322.955H329.979C333.855 322.955 337 326.1 337 329.975C337 333.851 333.855 336.996 329.979 336.996H7.02427ZM168.502 322.955V234.591L98.2942 164.384L28.0866 234.591V322.955H70.2111V273.809C70.2111 262.197 79.661 252.747 91.2734 252.747H105.315C116.927 252.747 126.377 262.197 126.377 273.809V322.955H168.502ZM112.336 322.955V273.809C112.336 269.934 109.19 266.789 105.315 266.789H91.2734C87.3979 266.789 84.2526 269.934 84.2526 273.809V322.955H112.336ZM273.813 101.885C243.835 171.657 224.668 224.959 224.668 238.706C226.269 260.989 244.466 278.935 266.792 280.732V262.674L247.78 243.662C245.042 240.924 245.042 236.473 247.78 233.735C249.114 232.415 250.869 231.685 252.751 231.685C254.632 231.685 256.388 232.415 257.722 233.735L266.792 242.82V188.69C266.792 184.814 269.938 181.669 273.813 181.669C277.689 181.669 280.834 184.814 280.834 188.69V280.732C303.104 278.935 321.302 260.919 322.973 238.326C322.86 224.664 303.679 171.419 273.813 101.885Z" fill="#8B3D88" fill-opacity="0.14"/>
<path d="M49.1453 98.2907C22.0452 98.2907 0 76.2455 0 49.1453C0 22.0452 22.0452 0 49.1453 0C70.1093 0 88.4897 13.1288 95.3981 32.478C100.579 29.6276 106.463 28.0971 112.416 28.0971C120.771 28.0971 128.873 31.0879 135.22 36.508C149.935 49.0892 151.662 71.2888 139.081 86.0043C132.397 93.8114 122.681 98.2907 112.402 98.2907H49.1453ZM49.1453 14.0415C29.7961 14.0415 14.0415 29.7821 14.0415 49.1453C14.0415 68.5086 29.7821 84.2491 49.1453 84.2491H112.332C118.637 84.2491 124.338 81.6374 128.41 76.8773C135.95 68.0452 134.911 54.7339 126.093 47.1795C122.288 43.9219 117.429 42.1386 112.416 42.1386C106.238 42.1386 100.397 44.8205 96.395 49.4964C95.0611 51.055 93.1234 51.9536 91.0592 51.9536C90.3431 51.9536 89.6411 51.8413 88.953 51.6307C86.2711 50.7882 84.3474 48.4292 84.0666 45.6349C82.2693 27.6197 67.2448 14.0415 49.1453 14.0415Z" fill="#8B3D88" fill-opacity="0.14"/>
</g>
</svg>
