<?xml version="1.0" encoding="utf-8"?>
<!-- Generator: Adobe Illustrator 21.0.0, SVG Export Plug-In . SVG Version: 6.00 Build 0)  -->
<svg version="1.1" id="Layer_1" xmlns="http://www.w3.org/2000/svg" xmlns:xlink="http://www.w3.org/1999/xlink" x="0px" y="0px"
	 viewBox="0 0 576 324" style="enable-background:new 0 0 576 324;" xml:space="preserve">
<style type="text/css">
	.st0{fill:none;stroke:#C2C2C2;stroke-width:0.5;stroke-miterlimit:2.6131;}
	.st1{fill:#006BB0;}
	.st2{fill:#1F1A17;}
	.st3{fill-rule:evenodd;clip-rule:evenodd;fill:#006BB0;}
	.st4{fill-rule:evenodd;clip-rule:evenodd;fill:#1F1A17;}
</style>
<rect x="0" class="st0" width="576" height="324"/>
<path class="st1" d="M164.5,85.6v115.5h-11c-1.7,0-3.1-0.3-4.3-0.9c-1.1-0.6-2.3-1.5-3.3-2.8l-60.3-77c0.3,3.5,0.5,6.8,0.5,9.7v71
	H67.1V85.6h11.3c0.9,0,1.7,0,2.4,0.1c0.7,0.1,1.3,0.2,1.8,0.5c0.5,0.2,1,0.6,1.5,1c0.5,0.5,1,1.1,1.6,1.8l60.6,77.3
	c-0.2-1.9-0.3-3.7-0.4-5.5c-0.1-1.8-0.2-3.5-0.2-5V85.6H164.5z"/>
<polygon class="st2" points="340.9,102.7 340.9,136.9 384.3,136.9 384.3,154.1 340.9,154.1 340.9,201.1 319.4,201.1 319.4,85.6 
	392.2,85.6 392.2,102.7 "/>
<path class="st2" d="M508.8,201.1h-16.6c-1.9,0-3.4-0.5-4.6-1.4c-1.2-0.9-2.1-2.1-2.6-3.5l-8.6-23.6h-47.9l-8.6,23.6
	c-0.4,1.2-1.3,2.3-2.5,3.4c-1.2,1-2.7,1.5-4.6,1.5h-16.8l45.5-115.5h21.9L508.8,201.1z M470.9,157.5l-14.1-38.4
	c-0.7-1.7-1.4-3.7-2.2-6.1c-0.7-2.3-1.5-4.9-2.2-7.6c-0.7,2.7-1.4,5.2-2.2,7.6c-0.7,2.4-1.5,4.4-2.2,6.2l-14,38.3H470.9z"/>
<path class="st1" d="M506.7,234.7c0.2,0,0.4,0.1,0.6,0.3l1.6,1.7c-0.9,1.1-2,2-3.3,2.5c-1.3,0.6-2.9,0.9-4.7,0.9
	c-1.6,0-3.1-0.3-4.4-0.8c-1.3-0.6-2.4-1.3-3.3-2.3c-0.9-1-1.6-2.2-2.1-3.6c-0.5-1.4-0.7-2.9-0.7-4.5c0-1.7,0.3-3.2,0.8-4.5
	c0.5-1.4,1.3-2.6,2.2-3.5c1-1,2.1-1.8,3.4-2.3c1.3-0.6,2.8-0.8,4.4-0.8c1.6,0,3,0.3,4.3,0.8c1.2,0.5,2.3,1.2,3.2,2.1l-1.4,1.9
	c-0.1,0.1-0.2,0.2-0.3,0.3c-0.1,0.1-0.3,0.1-0.5,0.1c-0.2,0-0.3,0-0.5-0.1c-0.2-0.1-0.3-0.2-0.5-0.3c-0.2-0.1-0.4-0.3-0.7-0.4
	c-0.3-0.2-0.5-0.3-0.9-0.4c-0.3-0.1-0.7-0.2-1.2-0.3c-0.4-0.1-1-0.1-1.5-0.1c-1,0-1.9,0.2-2.7,0.5c-0.8,0.3-1.5,0.9-2.1,1.5
	c-0.6,0.7-1,1.5-1.4,2.4c-0.3,1-0.5,2.1-0.5,3.3c0,1.2,0.2,2.3,0.5,3.3c0.3,1,0.8,1.8,1.4,2.4c0.6,0.7,1.3,1.2,2.1,1.5
	c0.8,0.3,1.7,0.5,2.6,0.5c0.6,0,1.1,0,1.5-0.1c0.5-0.1,0.9-0.2,1.2-0.3c0.4-0.1,0.7-0.3,1.1-0.5c0.3-0.2,0.7-0.5,1-0.8
	c0.1-0.1,0.2-0.2,0.3-0.2C506.4,234.7,506.6,234.7,506.7,234.7 M479.9,217.9c1.5,0,2.7,0.2,3.8,0.5c1.1,0.3,2,0.8,2.7,1.4
	c0.7,0.6,1.2,1.4,1.6,2.2c0.3,0.9,0.5,1.8,0.5,2.8c0,1.1-0.2,2-0.5,2.9c-0.4,0.9-0.9,1.7-1.6,2.3c-0.7,0.6-1.6,1.1-2.7,1.5
	c-1.1,0.4-2.3,0.5-3.7,0.5h-3.1v7.7h-4.1v-22H479.9z M479.9,228.9c0.7,0,1.4-0.1,2-0.3c0.6-0.2,1-0.5,1.4-0.8
	c0.4-0.3,0.6-0.8,0.8-1.3c0.2-0.5,0.3-1.1,0.3-1.7c0-0.6-0.1-1.1-0.3-1.6c-0.2-0.5-0.5-0.9-0.8-1.2c-0.4-0.3-0.8-0.6-1.4-0.8
	c-0.6-0.2-1.2-0.3-2-0.3h-3.1v7.9H479.9z M460.4,221.9c-0.1,0.2-0.2,0.4-0.4,0.5c-0.1,0.1-0.3,0.1-0.5,0.1c-0.2,0-0.4-0.1-0.7-0.2
	c-0.2-0.2-0.5-0.3-0.9-0.5c-0.3-0.2-0.7-0.4-1.2-0.5c-0.5-0.2-1-0.2-1.6-0.2c-0.6,0-1.1,0.1-1.5,0.2c-0.4,0.1-0.8,0.3-1.1,0.6
	c-0.3,0.2-0.5,0.5-0.6,0.9c-0.1,0.3-0.2,0.7-0.2,1.1c0,0.5,0.1,0.9,0.4,1.3c0.3,0.3,0.7,0.6,1.1,0.9c0.5,0.2,1,0.5,1.6,0.7
	c0.6,0.2,1.2,0.4,1.9,0.6c0.6,0.2,1.3,0.5,1.9,0.8c0.6,0.3,1.1,0.7,1.6,1.1c0.5,0.4,0.9,1,1.2,1.6c0.3,0.6,0.4,1.4,0.4,2.3
	c0,1-0.2,1.9-0.5,2.8c-0.3,0.9-0.8,1.6-1.5,2.3c-0.7,0.6-1.5,1.1-2.4,1.5c-0.9,0.4-2,0.6-3.2,0.6c-0.7,0-1.4-0.1-2.1-0.2
	c-0.7-0.1-1.3-0.3-2-0.6c-0.6-0.3-1.2-0.6-1.8-0.9c-0.5-0.4-1-0.8-1.5-1.2l1.2-2c0.1-0.1,0.2-0.3,0.4-0.4c0.2-0.1,0.3-0.1,0.5-0.1
	c0.3,0,0.5,0.1,0.8,0.3c0.3,0.2,0.6,0.4,1,0.7c0.4,0.3,0.9,0.5,1.4,0.7c0.5,0.2,1.2,0.3,1.9,0.3c1.2,0,2.1-0.3,2.7-0.8
	c0.6-0.6,1-1.3,1-2.4c0-0.6-0.1-1-0.4-1.4c-0.3-0.4-0.7-0.7-1.1-0.9c-0.5-0.2-1-0.5-1.6-0.6c-0.6-0.2-1.2-0.4-1.9-0.6
	c-0.6-0.2-1.2-0.4-1.9-0.7c-0.6-0.3-1.2-0.7-1.6-1.1c-0.5-0.5-0.9-1-1.1-1.7c-0.3-0.7-0.4-1.5-0.4-2.5c0-0.8,0.2-1.6,0.5-2.3
	c0.3-0.8,0.8-1.4,1.4-2c0.6-0.6,1.4-1.1,2.2-1.4c0.9-0.4,1.9-0.5,3.1-0.5c1.3,0,2.5,0.2,3.6,0.6c1.1,0.4,2,1,2.8,1.7L460.4,221.9z
	 M435.3,221.1v6.1h7.7v3.1h-7.7v6.2h9.8v3.3h-13.9v-22h13.9v3.3H435.3z M426.2,234.7c0.2,0,0.4,0.1,0.6,0.3l1.6,1.7
	c-0.9,1.1-2,2-3.3,2.5c-1.3,0.6-2.9,0.9-4.7,0.9c-1.6,0-3.1-0.3-4.4-0.8c-1.3-0.6-2.4-1.3-3.3-2.3c-0.9-1-1.6-2.2-2.1-3.6
	c-0.5-1.4-0.7-2.9-0.7-4.5c0-1.7,0.3-3.2,0.8-4.5c0.5-1.4,1.3-2.6,2.2-3.5c1-1,2.1-1.8,3.4-2.3c1.3-0.6,2.8-0.8,4.4-0.8
	c1.6,0,3,0.3,4.3,0.8c1.2,0.5,2.3,1.2,3.2,2.1l-1.4,1.9c-0.1,0.1-0.2,0.2-0.3,0.3c-0.1,0.1-0.3,0.1-0.5,0.1c-0.2,0-0.3,0-0.5-0.1
	c-0.2-0.1-0.3-0.2-0.5-0.3c-0.2-0.1-0.4-0.3-0.7-0.4c-0.3-0.2-0.5-0.3-0.9-0.4c-0.3-0.1-0.7-0.2-1.2-0.3c-0.4-0.1-1-0.1-1.5-0.1
	c-1,0-1.9,0.2-2.7,0.5c-0.8,0.3-1.5,0.9-2.1,1.5c-0.6,0.7-1,1.5-1.4,2.4c-0.3,1-0.5,2.1-0.5,3.3c0,1.2,0.2,2.3,0.5,3.3
	c0.4,1,0.8,1.8,1.4,2.4c0.6,0.7,1.3,1.2,2.1,1.5c0.8,0.3,1.7,0.5,2.6,0.5c0.6,0,1.1,0,1.5-0.1c0.5-0.1,0.9-0.2,1.2-0.3
	c0.4-0.1,0.7-0.3,1.1-0.5c0.3-0.2,0.7-0.5,1-0.8c0.1-0.1,0.2-0.2,0.3-0.2C426,234.7,426.1,234.7,426.2,234.7z M406.2,239.8h-4.1v-22
	h4.1V239.8z M399.8,217.9l-8.9,22h-3.7l-8.9-22h3.3c0.4,0,0.6,0.1,0.9,0.3c0.2,0.2,0.4,0.4,0.5,0.7l5.2,13.4
	c0.2,0.4,0.3,0.9,0.5,1.4c0.2,0.5,0.3,1.1,0.4,1.6c0.1-0.6,0.3-1.1,0.4-1.6c0.1-0.5,0.3-1,0.5-1.4l5.2-13.4c0.1-0.2,0.2-0.4,0.5-0.6
	c0.2-0.2,0.5-0.3,0.9-0.3H399.8z M378.6,239.8h-3.7c-0.7,0-1.2-0.3-1.5-0.8l-4.6-7c-0.2-0.3-0.4-0.5-0.6-0.6
	c-0.2-0.1-0.5-0.2-0.9-0.2h-1.7v8.6h-4.1v-22h6.7c1.5,0,2.8,0.2,3.8,0.5c1.1,0.3,1.9,0.7,2.6,1.3c0.7,0.6,1.2,1.2,1.5,2
	c0.3,0.8,0.5,1.6,0.5,2.6c0,0.7-0.1,1.4-0.3,2.1c-0.2,0.7-0.5,1.3-0.9,1.8c-0.4,0.5-0.9,1-1.5,1.4c-0.6,0.4-1.3,0.7-2.1,1
	c0.3,0.2,0.5,0.3,0.7,0.5c0.2,0.2,0.4,0.5,0.6,0.7L378.6,239.8z M368.1,228.3c0.8,0,1.4-0.1,2-0.3c0.6-0.2,1-0.5,1.4-0.8
	c0.4-0.3,0.6-0.7,0.8-1.2c0.2-0.5,0.3-1,0.3-1.5c0-1.1-0.4-2-1.1-2.6c-0.7-0.6-1.9-0.9-3.4-0.9h-2.6v7.3H368.1z M348.1,221.1v6.1
	h7.7v3.1h-7.7v6.2h9.8v3.3H344v-22h13.9v3.3H348.1z M339,221.9c-0.1,0.2-0.2,0.4-0.4,0.5c-0.1,0.1-0.3,0.1-0.5,0.1
	c-0.2,0-0.4-0.1-0.7-0.2c-0.2-0.2-0.5-0.3-0.9-0.5c-0.3-0.2-0.7-0.4-1.2-0.5c-0.5-0.2-1-0.2-1.6-0.2c-0.6,0-1.1,0.1-1.5,0.2
	c-0.4,0.1-0.8,0.3-1.1,0.6c-0.3,0.2-0.5,0.5-0.6,0.9c-0.1,0.3-0.2,0.7-0.2,1.1c0,0.5,0.1,0.9,0.4,1.3c0.3,0.3,0.7,0.6,1.1,0.9
	c0.5,0.2,1,0.5,1.6,0.7c0.6,0.2,1.2,0.4,1.9,0.6c0.6,0.2,1.3,0.5,1.9,0.8c0.6,0.3,1.1,0.7,1.6,1.1c0.5,0.4,0.9,1,1.1,1.6
	c0.3,0.6,0.4,1.4,0.4,2.3c0,1-0.2,1.9-0.5,2.8c-0.3,0.9-0.8,1.6-1.5,2.3c-0.7,0.6-1.5,1.1-2.4,1.5c-0.9,0.4-2,0.6-3.2,0.6
	c-0.7,0-1.4-0.1-2.1-0.2c-0.7-0.1-1.3-0.3-2-0.6c-0.6-0.3-1.2-0.6-1.8-0.9c-0.5-0.4-1-0.8-1.5-1.2l1.2-2c0.1-0.1,0.2-0.3,0.4-0.4
	c0.2-0.1,0.3-0.1,0.5-0.1c0.3,0,0.5,0.1,0.8,0.3c0.3,0.2,0.6,0.4,1,0.7c0.4,0.3,0.9,0.5,1.4,0.7c0.5,0.2,1.2,0.3,1.9,0.3
	c1.2,0,2.1-0.3,2.7-0.8c0.6-0.6,1-1.3,1-2.4c0-0.6-0.1-1-0.4-1.4c-0.3-0.4-0.7-0.7-1.1-0.9c-0.5-0.2-1-0.5-1.6-0.6
	c-0.6-0.2-1.2-0.4-1.9-0.6c-0.6-0.2-1.2-0.4-1.9-0.7c-0.6-0.3-1.2-0.7-1.6-1.1c-0.5-0.5-0.9-1-1.1-1.7c-0.3-0.7-0.4-1.5-0.4-2.5
	c0-0.8,0.2-1.6,0.5-2.3c0.3-0.8,0.8-1.4,1.4-2c0.6-0.6,1.4-1.1,2.2-1.4c0.9-0.4,1.9-0.5,3.1-0.5c1.3,0,2.5,0.2,3.6,0.6
	c1.1,0.4,2,1,2.8,1.7L339,221.9z M317,236.5v3.4h-12.9v-22h4.1v18.6H317z M301.9,239.8h-3.2c-0.4,0-0.6-0.1-0.9-0.3
	c-0.2-0.2-0.4-0.4-0.5-0.7l-1.6-4.5h-9.1l-1.6,4.5c-0.1,0.2-0.2,0.4-0.5,0.6c-0.2,0.2-0.5,0.3-0.9,0.3h-3.2l8.6-22h4.2L301.9,239.8z
	 M294.6,231.5l-2.7-7.3c-0.1-0.3-0.3-0.7-0.4-1.2c-0.1-0.4-0.3-0.9-0.4-1.4c-0.1,0.5-0.3,1-0.4,1.4c-0.1,0.5-0.3,0.8-0.4,1.2
	l-2.7,7.3H294.6z M278,234.7c0.2,0,0.4,0.1,0.6,0.3l1.6,1.7c-0.9,1.1-2,2-3.3,2.5c-1.3,0.6-2.9,0.9-4.7,0.9c-1.6,0-3.1-0.3-4.4-0.8
	c-1.3-0.6-2.4-1.3-3.3-2.3c-0.9-1-1.6-2.2-2.1-3.6c-0.5-1.4-0.7-2.9-0.7-4.5c0-1.7,0.3-3.2,0.8-4.5c0.5-1.4,1.3-2.6,2.2-3.5
	c1-1,2.1-1.8,3.4-2.3c1.3-0.6,2.8-0.8,4.4-0.8c1.6,0,3,0.3,4.3,0.8c1.2,0.5,2.3,1.2,3.2,2.1l-1.4,1.9c-0.1,0.1-0.2,0.2-0.3,0.3
	c-0.1,0.1-0.3,0.1-0.5,0.1c-0.2,0-0.3,0-0.5-0.1c-0.2-0.1-0.3-0.2-0.5-0.3c-0.2-0.1-0.4-0.3-0.7-0.4c-0.3-0.2-0.5-0.3-0.9-0.4
	c-0.3-0.1-0.7-0.2-1.2-0.3c-0.4-0.1-1-0.1-1.5-0.1c-1,0-1.9,0.2-2.7,0.5c-0.8,0.3-1.5,0.9-2.1,1.5c-0.6,0.7-1,1.5-1.4,2.4
	c-0.3,1-0.5,2.1-0.5,3.3c0,1.2,0.2,2.3,0.5,3.3c0.3,1,0.8,1.8,1.4,2.4c0.6,0.7,1.3,1.2,2.1,1.5c0.8,0.3,1.7,0.5,2.6,0.5
	c0.6,0,1.1,0,1.5-0.1c0.5-0.1,0.9-0.2,1.2-0.3c0.4-0.1,0.7-0.3,1.1-0.5c0.3-0.2,0.7-0.5,1-0.8c0.1-0.1,0.2-0.2,0.3-0.2
	C277.8,234.7,277.9,234.7,278,234.7z M258,239.8h-4.1v-22h4.1V239.8z M250,228.8v8.9c-1.1,0.8-2.3,1.4-3.6,1.8
	c-1.3,0.4-2.6,0.6-4.1,0.6c-1.8,0-3.4-0.3-4.9-0.8c-1.5-0.6-2.7-1.3-3.7-2.3c-1-1-1.8-2.2-2.4-3.6c-0.6-1.4-0.8-2.9-0.8-4.5
	c0-1.7,0.3-3.2,0.8-4.5c0.5-1.4,1.3-2.6,2.3-3.6c1-1,2.2-1.8,3.6-2.3c1.4-0.5,3-0.8,4.7-0.8c0.9,0,1.7,0.1,2.5,0.2
	c0.8,0.1,1.5,0.3,2.2,0.6c0.7,0.2,1.3,0.6,1.8,0.9c0.5,0.4,1,0.7,1.5,1.2l-1.2,1.9c-0.2,0.3-0.4,0.5-0.7,0.5c-0.3,0.1-0.6,0-1-0.2
	c-0.3-0.2-0.7-0.4-1-0.6c-0.3-0.2-0.7-0.4-1.1-0.5c-0.4-0.1-0.9-0.3-1.4-0.3c-0.5-0.1-1.1-0.1-1.8-0.1c-1.1,0-2.1,0.2-2.9,0.5
	c-0.9,0.4-1.6,0.9-2.2,1.6c-0.6,0.7-1.1,1.5-1.4,2.4c-0.3,1-0.5,2-0.5,3.2c0,1.3,0.2,2.4,0.5,3.4c0.4,1,0.9,1.8,1.5,2.5
	c0.7,0.7,1.4,1.2,2.4,1.6c0.9,0.4,2,0.5,3.1,0.5c0.8,0,1.5-0.1,2.2-0.3c0.6-0.2,1.3-0.4,1.9-0.7v-4h-2.8c-0.3,0-0.5-0.1-0.6-0.2
	c-0.1-0.1-0.2-0.3-0.2-0.5v-2.3H250z M224.1,228.9c0-1.2-0.2-2.3-0.5-3.2c-0.3-1-0.8-1.8-1.4-2.4c-0.6-0.7-1.3-1.2-2.2-1.5
	c-0.9-0.4-1.8-0.5-2.9-0.5c-1.1,0-2,0.2-2.9,0.5c-0.9,0.4-1.6,0.9-2.2,1.5c-0.6,0.7-1.1,1.5-1.4,2.4c-0.3,1-0.5,2-0.5,3.2
	c0,1.2,0.2,2.3,0.5,3.2c0.3,1,0.8,1.8,1.4,2.4c0.6,0.7,1.3,1.2,2.2,1.5c0.9,0.4,1.8,0.5,2.9,0.5c1.1,0,2-0.2,2.9-0.5
	c0.9-0.4,1.6-0.9,2.2-1.5c0.6-0.7,1.1-1.5,1.4-2.4C223.9,231.1,224.1,230.1,224.1,228.9z M228.3,228.9c0,1.6-0.3,3.1-0.8,4.5
	c-0.5,1.4-1.3,2.6-2.3,3.6c-1,1-2.1,1.8-3.5,2.3c-1.4,0.6-2.9,0.8-4.6,0.8c-1.7,0-3.2-0.3-4.5-0.8c-1.4-0.6-2.5-1.3-3.5-2.3
	c-1-1-1.7-2.2-2.3-3.6c-0.5-1.4-0.8-2.9-0.8-4.5c0-1.6,0.3-3.1,0.8-4.5c0.5-1.4,1.3-2.6,2.3-3.6c1-1,2.1-1.8,3.5-2.4
	c1.4-0.6,2.9-0.8,4.5-0.8c1.1,0,2.2,0.1,3.1,0.4c1,0.3,1.9,0.6,2.7,1.1c0.8,0.5,1.6,1,2.2,1.7c0.7,0.7,1.2,1.4,1.7,2.3
	c0.5,0.8,0.8,1.7,1,2.7C228.1,226.8,228.3,227.8,228.3,228.9z M204.4,236.5v3.4h-12.9v-22h4.1v18.6H204.4z M183.7,228.9
	c0-1.2-0.2-2.3-0.5-3.2c-0.3-1-0.8-1.8-1.4-2.4c-0.6-0.7-1.3-1.2-2.2-1.5c-0.9-0.4-1.8-0.5-2.9-0.5c-1.1,0-2,0.2-2.9,0.5
	c-0.9,0.4-1.6,0.9-2.2,1.5c-0.6,0.7-1.1,1.5-1.4,2.4c-0.3,1-0.5,2-0.5,3.2c0,1.2,0.2,2.3,0.5,3.2c0.3,1,0.8,1.8,1.4,2.4
	c0.6,0.7,1.3,1.2,2.2,1.5c0.9,0.4,1.8,0.5,2.9,0.5c1.1,0,2-0.2,2.9-0.5c0.9-0.4,1.6-0.9,2.2-1.5c0.6-0.7,1.1-1.5,1.4-2.4
	C183.6,231.1,183.7,230.1,183.7,228.9z M187.9,228.9c0,1.6-0.3,3.1-0.8,4.5c-0.5,1.4-1.3,2.6-2.3,3.6c-1,1-2.1,1.8-3.5,2.3
	c-1.4,0.6-2.9,0.8-4.6,0.8c-1.7,0-3.2-0.3-4.5-0.8c-1.4-0.6-2.5-1.3-3.5-2.3c-1-1-1.7-2.2-2.3-3.6c-0.5-1.4-0.8-2.9-0.8-4.5
	c0-1.6,0.3-3.1,0.8-4.5c0.5-1.4,1.3-2.6,2.3-3.6c1-1,2.1-1.8,3.5-2.4c1.4-0.6,2.9-0.8,4.5-0.8c1.1,0,2.2,0.1,3.1,0.4
	c1,0.3,1.9,0.6,2.7,1.1c0.8,0.5,1.6,1,2.2,1.7c0.7,0.7,1.2,1.4,1.7,2.3c0.5,0.8,0.8,1.7,1,2.7C187.8,226.8,187.9,227.8,187.9,228.9z
	 M162.1,217.9v22h-4.1v-9.6h-10.3v9.6h-4.1v-22h4.1v9.5h10.3v-9.5H162.1z M138.5,234.7c0.2,0,0.4,0.1,0.6,0.3l1.6,1.7
	c-0.9,1.1-2,2-3.3,2.5c-1.3,0.6-2.9,0.9-4.7,0.9c-1.6,0-3.1-0.3-4.4-0.8c-1.3-0.6-2.4-1.3-3.3-2.3c-0.9-1-1.6-2.2-2.1-3.6
	c-0.5-1.4-0.7-2.9-0.7-4.5c0-1.7,0.3-3.2,0.8-4.5c0.5-1.4,1.3-2.6,2.2-3.5c1-1,2.1-1.8,3.4-2.3c1.3-0.6,2.8-0.8,4.4-0.8
	c1.6,0,3,0.3,4.3,0.8c1.2,0.5,2.3,1.2,3.2,2.1l-1.4,1.9c-0.1,0.1-0.2,0.2-0.3,0.3c-0.1,0.1-0.3,0.1-0.5,0.1c-0.2,0-0.3,0-0.5-0.1
	c-0.2-0.1-0.3-0.2-0.5-0.3c-0.2-0.1-0.4-0.3-0.7-0.4c-0.3-0.2-0.5-0.3-0.9-0.4c-0.3-0.1-0.7-0.2-1.2-0.3c-0.4-0.1-1-0.1-1.5-0.1
	c-1,0-1.9,0.2-2.7,0.5c-0.8,0.3-1.5,0.9-2.1,1.5c-0.6,0.7-1,1.5-1.4,2.4c-0.3,1-0.5,2.1-0.5,3.3c0,1.2,0.2,2.3,0.5,3.3
	c0.3,1,0.8,1.8,1.4,2.4c0.6,0.7,1.3,1.2,2.1,1.5c0.8,0.3,1.7,0.5,2.6,0.5c0.6,0,1.1,0,1.5-0.1c0.5-0.1,0.9-0.2,1.2-0.3
	c0.4-0.1,0.7-0.3,1.1-0.5c0.3-0.2,0.7-0.5,1-0.8c0.1-0.1,0.2-0.2,0.3-0.2C138.3,234.7,138.4,234.7,138.5,234.7z M113.2,231.3v8.5
	h-4.1v-8.5l-8-13.5h3.6c0.4,0,0.6,0.1,0.8,0.3c0.2,0.2,0.4,0.4,0.5,0.7l4,7.3c0.2,0.4,0.4,0.8,0.6,1.2c0.2,0.4,0.3,0.8,0.5,1.2
	c0.1-0.4,0.3-0.8,0.5-1.2c0.2-0.4,0.4-0.8,0.6-1.2l4-7.3c0.1-0.2,0.3-0.4,0.5-0.6c0.2-0.2,0.5-0.3,0.9-0.3h3.6L113.2,231.3z
	 M98.8,221.9c-0.1,0.2-0.2,0.4-0.4,0.5c-0.1,0.1-0.3,0.1-0.5,0.1c-0.2,0-0.4-0.1-0.7-0.2c-0.2-0.2-0.5-0.3-0.9-0.5
	c-0.3-0.2-0.7-0.4-1.2-0.5c-0.5-0.2-1-0.2-1.6-0.2c-0.6,0-1.1,0.1-1.5,0.2c-0.4,0.1-0.8,0.3-1.1,0.6c-0.3,0.2-0.5,0.5-0.6,0.9
	c-0.1,0.3-0.2,0.7-0.2,1.1c0,0.5,0.1,0.9,0.4,1.3c0.3,0.3,0.7,0.6,1.1,0.9c0.5,0.2,1,0.5,1.6,0.7c0.6,0.2,1.2,0.4,1.9,0.6
	c0.6,0.2,1.3,0.5,1.9,0.8c0.6,0.3,1.1,0.7,1.6,1.1c0.5,0.4,0.9,1,1.2,1.6c0.3,0.6,0.4,1.4,0.4,2.3c0,1-0.2,1.9-0.5,2.8
	c-0.3,0.9-0.8,1.6-1.5,2.3c-0.7,0.6-1.5,1.1-2.4,1.5c-0.9,0.4-2,0.6-3.2,0.6c-0.7,0-1.4-0.1-2.1-0.2c-0.7-0.1-1.3-0.3-2-0.6
	c-0.6-0.3-1.2-0.6-1.8-0.9c-0.5-0.4-1-0.8-1.5-1.2l1.2-2c0.1-0.1,0.2-0.3,0.4-0.4c0.2-0.1,0.3-0.1,0.5-0.1c0.3,0,0.5,0.1,0.8,0.3
	c0.3,0.2,0.6,0.4,1,0.7c0.4,0.3,0.9,0.5,1.4,0.7c0.5,0.2,1.2,0.3,1.9,0.3c1.2,0,2.1-0.3,2.7-0.8c0.6-0.6,1-1.3,1-2.4
	c0-0.6-0.1-1-0.4-1.4c-0.3-0.4-0.7-0.7-1.1-0.9c-0.5-0.2-1-0.5-1.6-0.6c-0.6-0.2-1.2-0.4-1.9-0.6c-0.6-0.2-1.2-0.4-1.9-0.7
	c-0.6-0.3-1.2-0.7-1.6-1.1c-0.5-0.5-0.9-1-1.1-1.7c-0.3-0.7-0.4-1.5-0.4-2.5c0-0.8,0.2-1.6,0.5-2.3c0.3-0.8,0.8-1.4,1.4-2
	c0.6-0.6,1.4-1.1,2.2-1.4c0.9-0.4,1.9-0.5,3.1-0.5c1.3,0,2.5,0.2,3.6,0.6c1.1,0.4,2,1,2.8,1.7L98.8,221.9z M75.4,217.9
	c1.5,0,2.7,0.2,3.8,0.5c1.1,0.3,2,0.8,2.7,1.4c0.7,0.6,1.2,1.4,1.6,2.2c0.3,0.9,0.5,1.8,0.5,2.8c0,1.1-0.2,2-0.5,2.9
	c-0.4,0.9-0.9,1.7-1.6,2.3c-0.7,0.6-1.6,1.1-2.7,1.5c-1.1,0.4-2.3,0.5-3.7,0.5h-3.1v7.7h-4.1v-22H75.4z M75.4,228.9
	c0.7,0,1.4-0.1,2-0.3c0.6-0.2,1-0.5,1.4-0.8c0.4-0.3,0.6-0.8,0.8-1.3c0.2-0.5,0.3-1.1,0.3-1.7c0-0.6-0.1-1.1-0.3-1.6
	c-0.2-0.5-0.5-0.9-0.8-1.2c-0.4-0.3-0.8-0.6-1.4-0.8c-0.6-0.2-1.2-0.3-2-0.3h-3.1v7.9H75.4z"/>
<path class="st3" d="M223.3,202.5c-24.4-7.9-42.1-30.8-42.1-57.8c0-12,3.5-23.2,9.5-32.6l1.5,0c4.3,0.1,7.7,1.2,8,5.7l0,0v0
	c0.3,22.9-0.2,40.5,23.6,44.6c2.9,0.6,7.4,1.1,10.4,1.3l0.5,0l-0.2,26.8C234.4,199.7,231.7,204,223.3,202.5"/>
<path class="st3" d="M293.2,112.1c6,9.4,9.5,20.6,9.5,32.6c0,27.1-17.7,50-42.1,57.8c-8.4,1.5-11.1-2.8-11.3-12l-0.2-26.8l0.5,0
	c3-0.2,7.5-0.7,10.4-1.3c23.8-4.1,23.4-21.6,23.6-44.6v0l0,0c0.3-4.5,3.8-5.6,8-5.7L293.2,112.1z"/>
<path class="st4" d="M241.9,83.9c19.9,0,37.5,9.5,48.6,24.3l-1.7,0h-5l0,0c-4.1,0.3-9,1-11,5.1l-0.1,0.2c-1.2,2.3-1.7,4.9-2.2,7.5
	l-0.1,0.7c-0.8,4.6-0.8,7.7-0.9,12.3l-0.1,6.2c-0.1,1.6-0.2,3.1-0.3,4.7c-1.3,11.3-9.7,13.9-19.3,15l-0.6,0.1l0.1-43.5l0,0
	c0.6-5.6,3.1-6.7,8.3-7.3l0,0l1.7-0.1l1.8-0.1v-3.5h-17.7h-2.6h-17.7v3.5l1.8,0.1l1.7,0.1l0,0c5.2,0.6,7.7,1.7,8.3,7.3l0,0l0.1,43.5
	l-0.6-0.1c-9.7-1.1-18.1-3.7-19.3-15c-0.2-1.6-0.3-3.1-0.3-4.7l-0.1-6.2c-0.1-4.7-0.1-7.7-0.9-12.3l-0.1-0.7c-0.5-2.6-1-5.2-2.2-7.5
	l-0.1-0.2c-2.1-4.1-6.9-4.8-11-5.1l0,0h-5l-1.7,0C204.4,93.5,222,83.9,241.9,83.9"/>
</svg>
